<svg xmlns="http://www.w3.org/2000/svg" viewBox="0 0 30 20" width="450" height="300" role="img" aria-label="Flag of the People's Republic of China">
    <rect width="30" height="20" fill="#DE2910" />
    <!-- Big star -->
    <g fill="#FFDE00">
        <polygon points="5,3 6.2,6.4 9.9,6.4 6.9,8.3 8.1,11.8 5,9.5 1.9,11.8 3.1,8.3 0.1,6.4 3.8,6.4" transform="scale(0.9) translate(0.6,0.2)"/>
        <!-- Four small stars (approx positions) -->
        <polygon points="10,2 10.9,4.2 13.4,4.2 11.5,5.6 12.3,7.8 10,6.3 7.7,7.8 8.5,5.6 6.6,4.2 9.1,4.2" transform="translate(0.8,0.6) scale(0.45)"/>
        <polygon points="13,4.4 13.9,6.6 16.4,6.6 14.5,8 15.3,10.2 13,8.7 10.7,10.2 11.5,8 9.6,6.6 12.1,6.6" transform="translate(2.2,1.3) scale(0.35)"/>
        <polygon points="13,7.8 13.9,10 16.4,10 14.5,11.4 15.3,13.6 13,12.1 10.7,13.6 11.5,11.4 9.6,10 12.1,10" transform="translate(2.9,2.5) scale(0.25)"/>
        <polygon points="13,11.2 13.9,13.4 16.4,13.4 14.5,14.8 15.3,17 13,15.5 10.7,17 11.5,14.8 9.6,13.4 12.1,13.4" transform="translate(3.6,3.8) scale(0.2)"/>
    </g>
</svg>
